<?xml version="1.0" encoding="UTF-8" standalone="no"?>
<!DOCTYPE svg PUBLIC "-//W3C//DTD SVG 1.1//EN"
 "http://www.w3.org/Graphics/SVG/1.1/DTD/svg11.dtd">
<!-- Generated by graphviz version 2.38.0 (20140413.2041)
 -->
<!-- Title: snakemake_dag Pages: 1 -->
<svg width="634pt" height="332pt"
 viewBox="0.00 0.00 634.00 332.00" xmlns="http://www.w3.org/2000/svg" xmlns:xlink="http://www.w3.org/1999/xlink">
<g id="graph0" class="graph" transform="scale(1 1) rotate(0) translate(4 328)">
<title>snakemake_dag</title>
<polygon fill="white" stroke="none" points="-4,4 -4,-328 630,-328 630,4 -4,4"/>
<!-- 0 -->
<g id="node1" class="node"><title>0</title>
<path fill="none" stroke="#d8ac56" stroke-width="2" d="M294.5,-36C294.5,-36 222.5,-36 222.5,-36 216.5,-36 210.5,-30 210.5,-24 210.5,-24 210.5,-12 210.5,-12 210.5,-6 216.5,-0 222.5,-0 222.5,-0 294.5,-0 294.5,-0 300.5,-0 306.5,-6 306.5,-12 306.5,-12 306.5,-24 306.5,-24 306.5,-30 300.5,-36 294.5,-36"/>
<text text-anchor="middle" x="258.5" y="-15.5" font-family="sans" font-size="10.00">make_summary</text>
</g>
<!-- 1 -->
<g id="node2" class="node"><title>1</title>
<path fill="none" stroke="#56d8a9" stroke-width="2" d="M199.5,-108C199.5,-108 155.5,-108 155.5,-108 149.5,-108 143.5,-102 143.5,-96 143.5,-96 143.5,-84 143.5,-84 143.5,-78 149.5,-72 155.5,-72 155.5,-72 199.5,-72 199.5,-72 205.5,-72 211.5,-78 211.5,-84 211.5,-84 211.5,-96 211.5,-96 211.5,-102 205.5,-108 199.5,-108"/>
<text text-anchor="middle" x="177.5" y="-87.5" font-family="sans" font-size="10.00">make_dag</text>
</g>
<!-- 1&#45;&gt;0 -->
<g id="edge1" class="edge"><title>1&#45;&gt;0</title>
<path fill="none" stroke="grey" stroke-width="2" d="M197.522,-71.6966C207.626,-62.9655 220.036,-52.2405 231.018,-42.7503"/>
<polygon fill="grey" stroke="grey" stroke-width="2" points="233.43,-45.2912 238.708,-36.1043 228.853,-39.9948 233.43,-45.2912"/>
</g>
<!-- 2 -->
<g id="node3" class="node"><title>2</title>
<path fill="none" stroke="#56a9d8" stroke-width="2" d="M338,-252C338,-252 287,-252 287,-252 281,-252 275,-246 275,-240 275,-240 275,-228 275,-228 275,-222 281,-216 287,-216 287,-216 338,-216 338,-216 344,-216 350,-222 350,-228 350,-228 350,-240 350,-240 350,-246 344,-252 338,-252"/>
<text text-anchor="middle" x="312.5" y="-231.5" font-family="sans" font-size="10.00">process_ccs</text>
</g>
<!-- 2&#45;&gt;0 -->
<g id="edge2" class="edge"><title>2&#45;&gt;0</title>
<path fill="none" stroke="grey" stroke-width="2" d="M287.572,-215.861C276.44,-206.67 264.499,-194.293 258.5,-180 240.052,-136.045 246.184,-79.2024 252.333,-46.1504"/>
<polygon fill="grey" stroke="grey" stroke-width="2" points="255.774,-46.7934 254.299,-36.3017 248.909,-45.423 255.774,-46.7934"/>
</g>
<!-- 3 -->
<g id="node4" class="node"><title>3</title>
<path fill="none" stroke="#d85656" stroke-width="2" d="M345,-180C345,-180 280,-180 280,-180 274,-180 268,-174 268,-168 268,-168 268,-156 268,-156 268,-150 274,-144 280,-144 280,-144 345,-144 345,-144 351,-144 357,-150 357,-156 357,-156 357,-168 357,-168 357,-174 351,-180 345,-180"/>
<text text-anchor="middle" x="312.5" y="-159.5" font-family="sans" font-size="10.00">count_variants</text>
</g>
<!-- 2&#45;&gt;3 -->
<g id="edge9" class="edge"><title>2&#45;&gt;3</title>
<path fill="none" stroke="grey" stroke-width="2" d="M312.5,-215.697C312.5,-207.983 312.5,-198.712 312.5,-190.112"/>
<polygon fill="grey" stroke="grey" stroke-width="2" points="316,-190.104 312.5,-180.104 309,-190.104 316,-190.104"/>
</g>
<!-- 4 -->
<g id="node5" class="node"><title>4</title>
<path fill="none" stroke="#59d856" stroke-width="2" d="M403,-108C403,-108 318,-108 318,-108 312,-108 306,-102 306,-96 306,-96 306,-84 306,-84 306,-78 312,-72 318,-72 318,-72 403,-72 403,-72 409,-72 415,-78 415,-84 415,-84 415,-96 415,-96 415,-102 409,-108 403,-108"/>
<text text-anchor="middle" x="360.5" y="-87.5" font-family="sans" font-size="10.00">merge_sequencing</text>
</g>
<!-- 2&#45;&gt;4 -->
<g id="edge10" class="edge"><title>2&#45;&gt;4</title>
<path fill="none" stroke="grey" stroke-width="2" d="M336.977,-215.768C347.904,-206.555 359.624,-194.186 365.5,-180 373.619,-160.399 371.608,-136.267 367.989,-118.079"/>
<polygon fill="grey" stroke="grey" stroke-width="2" points="371.359,-117.116 365.736,-108.137 364.532,-118.663 371.359,-117.116"/>
</g>
<!-- 3&#45;&gt;0 -->
<g id="edge3" class="edge"><title>3&#45;&gt;0</title>
<path fill="none" stroke="grey" stroke-width="2" d="M305.986,-143.871C296.702,-119.457 279.577,-74.4258 268.629,-45.6351"/>
<polygon fill="grey" stroke="grey" stroke-width="2" points="271.863,-44.2921 265.037,-36.1893 265.32,-46.7803 271.863,-44.2921"/>
</g>
<!-- 3&#45;&gt;4 -->
<g id="edge11" class="edge"><title>3&#45;&gt;4</title>
<path fill="none" stroke="grey" stroke-width="2" d="M324.365,-143.697C330.003,-135.474 336.854,-125.483 343.069,-116.421"/>
<polygon fill="grey" stroke="grey" stroke-width="2" points="346.003,-118.331 348.771,-108.104 340.229,-114.372 346.003,-118.331"/>
</g>
<!-- 4&#45;&gt;0 -->
<g id="edge4" class="edge"><title>4&#45;&gt;0</title>
<path fill="none" stroke="grey" stroke-width="2" d="M335.548,-71.8761C322.458,-62.8931 306.24,-51.7625 292.064,-42.0341"/>
<polygon fill="grey" stroke="grey" stroke-width="2" points="293.774,-38.9624 283.548,-36.1898 289.813,-44.734 293.774,-38.9624"/>
</g>
<!-- 5 -->
<g id="node6" class="node"><title>5</title>
<path fill="none" stroke="#afd856" stroke-width="2" d="M131,-324C131,-324 12,-324 12,-324 6,-324 0,-318 0,-312 0,-312 0,-300 0,-300 0,-294 6,-288 12,-288 12,-288 131,-288 131,-288 137,-288 143,-294 143,-300 143,-300 143,-312 143,-312 143,-318 137,-324 131,-324"/>
<text text-anchor="middle" x="71.5" y="-309" font-family="sans" font-size="10.00">build_ccs</text>
<text text-anchor="middle" x="71.5" y="-298" font-family="sans" font-size="10.00">pacbioRun: lib1_200916_1</text>
</g>
<!-- 5&#45;&gt;2 -->
<g id="edge5" class="edge"><title>5&#45;&gt;2</title>
<path fill="none" stroke="grey" stroke-width="2" d="M130.147,-287.966C171.459,-275.966 226.078,-260.102 264.737,-248.873"/>
<polygon fill="grey" stroke="grey" stroke-width="2" points="266.07,-252.13 274.697,-245.98 264.118,-245.408 266.07,-252.13"/>
</g>
<!-- 6 -->
<g id="node7" class="node"><title>6</title>
<path fill="none" stroke="#afd856" stroke-width="2" d="M292,-324C292,-324 173,-324 173,-324 167,-324 161,-318 161,-312 161,-312 161,-300 161,-300 161,-294 167,-288 173,-288 173,-288 292,-288 292,-288 298,-288 304,-294 304,-300 304,-300 304,-312 304,-312 304,-318 298,-324 292,-324"/>
<text text-anchor="middle" x="232.5" y="-309" font-family="sans" font-size="10.00">build_ccs</text>
<text text-anchor="middle" x="232.5" y="-298" font-family="sans" font-size="10.00">pacbioRun: lib2_200916_1</text>
</g>
<!-- 6&#45;&gt;2 -->
<g id="edge6" class="edge"><title>6&#45;&gt;2</title>
<path fill="none" stroke="grey" stroke-width="2" d="M252.275,-287.697C262.254,-278.965 274.511,-268.24 285.357,-258.75"/>
<polygon fill="grey" stroke="grey" stroke-width="2" points="287.731,-261.323 292.952,-252.104 283.122,-256.055 287.731,-261.323"/>
</g>
<!-- 7 -->
<g id="node8" class="node"><title>7</title>
<path fill="none" stroke="#afd856" stroke-width="2" d="M453,-324C453,-324 334,-324 334,-324 328,-324 322,-318 322,-312 322,-312 322,-300 322,-300 322,-294 328,-288 334,-288 334,-288 453,-288 453,-288 459,-288 465,-294 465,-300 465,-300 465,-312 465,-312 465,-318 459,-324 453,-324"/>
<text text-anchor="middle" x="393.5" y="-309" font-family="sans" font-size="10.00">build_ccs</text>
<text text-anchor="middle" x="393.5" y="-298" font-family="sans" font-size="10.00">pacbioRun: lib1_200916_2</text>
</g>
<!-- 7&#45;&gt;2 -->
<g id="edge7" class="edge"><title>7&#45;&gt;2</title>
<path fill="none" stroke="grey" stroke-width="2" d="M373.478,-287.697C363.374,-278.965 350.964,-268.24 339.982,-258.75"/>
<polygon fill="grey" stroke="grey" stroke-width="2" points="342.147,-255.995 332.292,-252.104 337.57,-261.291 342.147,-255.995"/>
</g>
<!-- 8 -->
<g id="node9" class="node"><title>8</title>
<path fill="none" stroke="#afd856" stroke-width="2" d="M614,-324C614,-324 495,-324 495,-324 489,-324 483,-318 483,-312 483,-312 483,-300 483,-300 483,-294 489,-288 495,-288 495,-288 614,-288 614,-288 620,-288 626,-294 626,-300 626,-300 626,-312 626,-312 626,-318 620,-324 614,-324"/>
<text text-anchor="middle" x="554.5" y="-309" font-family="sans" font-size="10.00">build_ccs</text>
<text text-anchor="middle" x="554.5" y="-298" font-family="sans" font-size="10.00">pacbioRun: lib2_200916_2</text>
</g>
<!-- 8&#45;&gt;2 -->
<g id="edge8" class="edge"><title>8&#45;&gt;2</title>
<path fill="none" stroke="grey" stroke-width="2" d="M495.61,-287.966C453.998,-275.929 398.941,-260.004 360.101,-248.769"/>
<polygon fill="grey" stroke="grey" stroke-width="2" points="360.678,-245.292 350.099,-245.876 358.732,-252.017 360.678,-245.292"/>
</g>
</g>
</svg>
