<?xml version="1.0" encoding="UTF-8" standalone="no"?>
<!DOCTYPE svg PUBLIC "-//W3C//DTD SVG 1.1//EN"
 "http://www.w3.org/Graphics/SVG/1.1/DTD/svg11.dtd">
<!-- Generated by graphviz version 2.38.0 (20140413.2041)
 -->
<!-- Title: snakemake_dag Pages: 1 -->
<svg width="634pt" height="260pt"
 viewBox="0.00 0.00 634.00 260.00" xmlns="http://www.w3.org/2000/svg" xmlns:xlink="http://www.w3.org/1999/xlink">
<g id="graph0" class="graph" transform="scale(1 1) rotate(0) translate(4 256)">
<title>snakemake_dag</title>
<polygon fill="white" stroke="none" points="-4,4 -4,-256 630,-256 630,4 -4,4"/>
<!-- 0 -->
<g id="node1" class="node"><title>0</title>
<path fill="none" stroke="#d85656" stroke-width="2" d="M312.5,-36C312.5,-36 240.5,-36 240.5,-36 234.5,-36 228.5,-30 228.5,-24 228.5,-24 228.5,-12 228.5,-12 228.5,-6 234.5,-0 240.5,-0 240.5,-0 312.5,-0 312.5,-0 318.5,-0 324.5,-6 324.5,-12 324.5,-12 324.5,-24 324.5,-24 324.5,-30 318.5,-36 312.5,-36"/>
<text text-anchor="middle" x="276.5" y="-15.5" font-family="sans" font-size="10.00">make_summary</text>
</g>
<!-- 1 -->
<g id="node2" class="node"><title>1</title>
<path fill="none" stroke="#59d856" stroke-width="2" d="M236.5,-108C236.5,-108 192.5,-108 192.5,-108 186.5,-108 180.5,-102 180.5,-96 180.5,-96 180.5,-84 180.5,-84 180.5,-78 186.5,-72 192.5,-72 192.5,-72 236.5,-72 236.5,-72 242.5,-72 248.5,-78 248.5,-84 248.5,-84 248.5,-96 248.5,-96 248.5,-102 242.5,-108 236.5,-108"/>
<text text-anchor="middle" x="214.5" y="-87.5" font-family="sans" font-size="10.00">make_dag</text>
</g>
<!-- 1&#45;&gt;0 -->
<g id="edge1" class="edge"><title>1&#45;&gt;0</title>
<path fill="none" stroke="grey" stroke-width="2" d="M229.826,-71.6966C237.259,-63.3046 246.323,-53.0705 254.48,-43.8613"/>
<polygon fill="grey" stroke="grey" stroke-width="2" points="257.34,-45.9109 261.35,-36.1043 252.1,-41.2696 257.34,-45.9109"/>
</g>
<!-- 2 -->
<g id="node3" class="node"><title>2</title>
<path fill="none" stroke="#afd856" stroke-width="2" d="M338,-180C338,-180 287,-180 287,-180 281,-180 275,-174 275,-168 275,-168 275,-156 275,-156 275,-150 281,-144 287,-144 287,-144 338,-144 338,-144 344,-144 350,-150 350,-156 350,-156 350,-168 350,-168 350,-174 344,-180 338,-180"/>
<text text-anchor="middle" x="312.5" y="-159.5" font-family="sans" font-size="10.00">process_ccs</text>
</g>
<!-- 2&#45;&gt;0 -->
<g id="edge2" class="edge"><title>2&#45;&gt;0</title>
<path fill="none" stroke="grey" stroke-width="2" d="M306.997,-143.903C303.754,-133.563 299.677,-120.084 296.5,-108 291.097,-87.4525 285.865,-63.999 282.107,-46.3282"/>
<polygon fill="grey" stroke="grey" stroke-width="2" points="285.451,-45.2179 279.97,-36.1505 278.6,-46.6564 285.451,-45.2179"/>
</g>
<!-- 3 -->
<g id="node4" class="node"><title>3</title>
<path fill="none" stroke="#56a9d8" stroke-width="2" d="M382,-108C382,-108 317,-108 317,-108 311,-108 305,-102 305,-96 305,-96 305,-84 305,-84 305,-78 311,-72 317,-72 317,-72 382,-72 382,-72 388,-72 394,-78 394,-84 394,-84 394,-96 394,-96 394,-102 388,-108 382,-108"/>
<text text-anchor="middle" x="349.5" y="-87.5" font-family="sans" font-size="10.00">count_variants</text>
</g>
<!-- 2&#45;&gt;3 -->
<g id="edge8" class="edge"><title>2&#45;&gt;3</title>
<path fill="none" stroke="grey" stroke-width="2" d="M321.646,-143.697C325.903,-135.644 331.056,-125.894 335.766,-116.982"/>
<polygon fill="grey" stroke="grey" stroke-width="2" points="338.88,-118.581 340.459,-108.104 332.692,-115.31 338.88,-118.581"/>
</g>
<!-- 3&#45;&gt;0 -->
<g id="edge3" class="edge"><title>3&#45;&gt;0</title>
<path fill="none" stroke="grey" stroke-width="2" d="M331.455,-71.6966C322.438,-63.0503 311.382,-52.4486 301.557,-43.027"/>
<polygon fill="grey" stroke="grey" stroke-width="2" points="303.978,-40.4993 294.337,-36.1043 299.133,-45.5518 303.978,-40.4993"/>
</g>
<!-- 4 -->
<g id="node5" class="node"><title>4</title>
<path fill="none" stroke="#56d8a9" stroke-width="2" d="M131,-252C131,-252 12,-252 12,-252 6,-252 0,-246 0,-240 0,-240 0,-228 0,-228 0,-222 6,-216 12,-216 12,-216 131,-216 131,-216 137,-216 143,-222 143,-228 143,-228 143,-240 143,-240 143,-246 137,-252 131,-252"/>
<text text-anchor="middle" x="71.5" y="-237" font-family="sans" font-size="10.00">build_ccs</text>
<text text-anchor="middle" x="71.5" y="-226" font-family="sans" font-size="10.00">pacbioRun: lib1_200916_1</text>
</g>
<!-- 4&#45;&gt;2 -->
<g id="edge4" class="edge"><title>4&#45;&gt;2</title>
<path fill="none" stroke="grey" stroke-width="2" d="M130.147,-215.966C171.459,-203.966 226.078,-188.102 264.737,-176.873"/>
<polygon fill="grey" stroke="grey" stroke-width="2" points="266.07,-180.13 274.697,-173.98 264.118,-173.408 266.07,-180.13"/>
</g>
<!-- 5 -->
<g id="node6" class="node"><title>5</title>
<path fill="none" stroke="#56d8a9" stroke-width="2" d="M292,-252C292,-252 173,-252 173,-252 167,-252 161,-246 161,-240 161,-240 161,-228 161,-228 161,-222 167,-216 173,-216 173,-216 292,-216 292,-216 298,-216 304,-222 304,-228 304,-228 304,-240 304,-240 304,-246 298,-252 292,-252"/>
<text text-anchor="middle" x="232.5" y="-237" font-family="sans" font-size="10.00">build_ccs</text>
<text text-anchor="middle" x="232.5" y="-226" font-family="sans" font-size="10.00">pacbioRun: lib2_200916_1</text>
</g>
<!-- 5&#45;&gt;2 -->
<g id="edge5" class="edge"><title>5&#45;&gt;2</title>
<path fill="none" stroke="grey" stroke-width="2" d="M252.275,-215.697C262.254,-206.965 274.511,-196.24 285.357,-186.75"/>
<polygon fill="grey" stroke="grey" stroke-width="2" points="287.731,-189.323 292.952,-180.104 283.122,-184.055 287.731,-189.323"/>
</g>
<!-- 6 -->
<g id="node7" class="node"><title>6</title>
<path fill="none" stroke="#56d8a9" stroke-width="2" d="M453,-252C453,-252 334,-252 334,-252 328,-252 322,-246 322,-240 322,-240 322,-228 322,-228 322,-222 328,-216 334,-216 334,-216 453,-216 453,-216 459,-216 465,-222 465,-228 465,-228 465,-240 465,-240 465,-246 459,-252 453,-252"/>
<text text-anchor="middle" x="393.5" y="-237" font-family="sans" font-size="10.00">build_ccs</text>
<text text-anchor="middle" x="393.5" y="-226" font-family="sans" font-size="10.00">pacbioRun: lib1_200916_2</text>
</g>
<!-- 6&#45;&gt;2 -->
<g id="edge6" class="edge"><title>6&#45;&gt;2</title>
<path fill="none" stroke="grey" stroke-width="2" d="M373.478,-215.697C363.374,-206.965 350.964,-196.24 339.982,-186.75"/>
<polygon fill="grey" stroke="grey" stroke-width="2" points="342.147,-183.995 332.292,-180.104 337.57,-189.291 342.147,-183.995"/>
</g>
<!-- 7 -->
<g id="node8" class="node"><title>7</title>
<path fill="none" stroke="#56d8a9" stroke-width="2" d="M614,-252C614,-252 495,-252 495,-252 489,-252 483,-246 483,-240 483,-240 483,-228 483,-228 483,-222 489,-216 495,-216 495,-216 614,-216 614,-216 620,-216 626,-222 626,-228 626,-228 626,-240 626,-240 626,-246 620,-252 614,-252"/>
<text text-anchor="middle" x="554.5" y="-237" font-family="sans" font-size="10.00">build_ccs</text>
<text text-anchor="middle" x="554.5" y="-226" font-family="sans" font-size="10.00">pacbioRun: lib2_200916_2</text>
</g>
<!-- 7&#45;&gt;2 -->
<g id="edge7" class="edge"><title>7&#45;&gt;2</title>
<path fill="none" stroke="grey" stroke-width="2" d="M495.61,-215.966C453.998,-203.929 398.941,-188.004 360.101,-176.769"/>
<polygon fill="grey" stroke="grey" stroke-width="2" points="360.678,-173.292 350.099,-173.876 358.732,-180.017 360.678,-173.292"/>
</g>
</g>
</svg>
