<?xml version="1.0" encoding="UTF-8" standalone="no"?>
<!DOCTYPE svg PUBLIC "-//W3C//DTD SVG 1.1//EN"
 "http://www.w3.org/Graphics/SVG/1.1/DTD/svg11.dtd">
<!-- Generated by graphviz version 2.38.0 (20140413.2041)
 -->
<!-- Title: snakemake_dag Pages: 1 -->
<svg width="634pt" height="476pt"
 viewBox="0.00 0.00 634.00 476.00" xmlns="http://www.w3.org/2000/svg" xmlns:xlink="http://www.w3.org/1999/xlink">
<g id="graph0" class="graph" transform="scale(1 1) rotate(0) translate(4 472)">
<title>snakemake_dag</title>
<polygon fill="white" stroke="none" points="-4,4 -4,-472 630,-472 630,4 -4,4"/>
<!-- 0 -->
<g id="node1" class="node"><title>0</title>
<path fill="none" stroke="#d85656" stroke-width="2" d="M351.5,-36C351.5,-36 279.5,-36 279.5,-36 273.5,-36 267.5,-30 267.5,-24 267.5,-24 267.5,-12 267.5,-12 267.5,-6 273.5,-0 279.5,-0 279.5,-0 351.5,-0 351.5,-0 357.5,-0 363.5,-6 363.5,-12 363.5,-12 363.5,-24 363.5,-24 363.5,-30 357.5,-36 351.5,-36"/>
<text text-anchor="middle" x="315.5" y="-15.5" font-family="sans" font-size="10.00">make_summary</text>
</g>
<!-- 1 -->
<g id="node2" class="node"><title>1</title>
<path fill="none" stroke="#d8cb56" stroke-width="2" d="M199.5,-108C199.5,-108 155.5,-108 155.5,-108 149.5,-108 143.5,-102 143.5,-96 143.5,-96 143.5,-84 143.5,-84 143.5,-78 149.5,-72 155.5,-72 155.5,-72 199.5,-72 199.5,-72 205.5,-72 211.5,-78 211.5,-84 211.5,-84 211.5,-96 211.5,-96 211.5,-102 205.5,-108 199.5,-108"/>
<text text-anchor="middle" x="177.5" y="-87.5" font-family="sans" font-size="10.00">make_dag</text>
</g>
<!-- 1&#45;&gt;0 -->
<g id="edge1" class="edge"><title>1&#45;&gt;0</title>
<path fill="none" stroke="grey" stroke-width="2" d="M211.259,-71.8761C229.72,-62.5117 252.782,-50.8136 272.517,-40.803"/>
<polygon fill="grey" stroke="grey" stroke-width="2" points="274.277,-43.835 281.612,-36.1898 271.11,-37.5922 274.277,-43.835"/>
</g>
<!-- 2 -->
<g id="node3" class="node"><title>2</title>
<path fill="none" stroke="#56d873" stroke-width="2" d="M338,-396C338,-396 287,-396 287,-396 281,-396 275,-390 275,-384 275,-384 275,-372 275,-372 275,-366 281,-360 287,-360 287,-360 338,-360 338,-360 344,-360 350,-366 350,-372 350,-372 350,-384 350,-384 350,-390 344,-396 338,-396"/>
<text text-anchor="middle" x="312.5" y="-375.5" font-family="sans" font-size="10.00">process_ccs</text>
</g>
<!-- 2&#45;&gt;0 -->
<g id="edge2" class="edge"><title>2&#45;&gt;0</title>
<path fill="none" stroke="grey" stroke-width="2" d="M290.163,-359.836C279.349,-350.388 267.093,-337.793 259.5,-324 239.949,-288.484 239.5,-275.542 239.5,-235 239.5,-235 239.5,-235 239.5,-161 239.5,-115.641 270.017,-70.7492 292.375,-43.9457"/>
<polygon fill="grey" stroke="grey" stroke-width="2" points="295.145,-46.0926 299.009,-36.2276 289.836,-41.5297 295.145,-46.0926"/>
</g>
<!-- 3 -->
<g id="node4" class="node"><title>3</title>
<path fill="none" stroke="#70d856" stroke-width="2" d="M345,-324C345,-324 280,-324 280,-324 274,-324 268,-318 268,-312 268,-312 268,-300 268,-300 268,-294 274,-288 280,-288 280,-288 345,-288 345,-288 351,-288 357,-294 357,-300 357,-300 357,-312 357,-312 357,-318 351,-324 345,-324"/>
<text text-anchor="middle" x="312.5" y="-303.5" font-family="sans" font-size="10.00">count_variants</text>
</g>
<!-- 2&#45;&gt;3 -->
<g id="edge12" class="edge"><title>2&#45;&gt;3</title>
<path fill="none" stroke="grey" stroke-width="2" d="M312.5,-359.697C312.5,-351.983 312.5,-342.712 312.5,-334.112"/>
<polygon fill="grey" stroke="grey" stroke-width="2" points="316,-334.104 312.5,-324.104 309,-334.104 316,-334.104"/>
</g>
<!-- 4 -->
<g id="node5" class="node"><title>4</title>
<path fill="none" stroke="#56d8a9" stroke-width="2" d="M424,-252C424,-252 339,-252 339,-252 333,-252 327,-246 327,-240 327,-240 327,-228 327,-228 327,-222 333,-216 339,-216 339,-216 424,-216 424,-216 430,-216 436,-222 436,-228 436,-228 436,-240 436,-240 436,-246 430,-252 424,-252"/>
<text text-anchor="middle" x="381.5" y="-231.5" font-family="sans" font-size="10.00">merge_sequencing</text>
</g>
<!-- 2&#45;&gt;4 -->
<g id="edge13" class="edge"><title>2&#45;&gt;4</title>
<path fill="none" stroke="grey" stroke-width="2" d="M335.855,-359.852C346.888,-350.495 359.209,-337.976 366.5,-324 376.497,-304.838 380.076,-280.489 381.25,-262.104"/>
<polygon fill="grey" stroke="grey" stroke-width="2" points="384.75,-262.198 381.695,-252.053 377.756,-261.889 384.75,-262.198"/>
</g>
<!-- 3&#45;&gt;0 -->
<g id="edge3" class="edge"><title>3&#45;&gt;0</title>
<path fill="none" stroke="grey" stroke-width="2" d="M311.462,-287.736C309.315,-249.07 304.953,-152.579 309.5,-72 309.977,-63.5491 310.878,-54.3761 311.84,-46.0742"/>
<polygon fill="grey" stroke="grey" stroke-width="2" points="315.314,-46.4971 313.063,-36.1441 308.367,-45.6412 315.314,-46.4971"/>
</g>
<!-- 3&#45;&gt;4 -->
<g id="edge14" class="edge"><title>3&#45;&gt;4</title>
<path fill="none" stroke="grey" stroke-width="2" d="M329.556,-287.697C337.995,-279.135 348.325,-268.656 357.543,-259.304"/>
<polygon fill="grey" stroke="grey" stroke-width="2" points="360.113,-261.683 364.64,-252.104 355.127,-256.769 360.113,-261.683"/>
</g>
<!-- 4&#45;&gt;0 -->
<g id="edge4" class="edge"><title>4&#45;&gt;0</title>
<path fill="none" stroke="grey" stroke-width="2" d="M361.394,-215.891C351.6,-206.37 340.638,-193.691 334.5,-180 314.948,-136.39 312.974,-79.7986 313.862,-46.6336"/>
<polygon fill="grey" stroke="grey" stroke-width="2" points="317.371,-46.4622 314.251,-36.3371 310.376,-46.1976 317.371,-46.4622"/>
</g>
<!-- 5 -->
<g id="node6" class="node"><title>5</title>
<path fill="none" stroke="#56c9d8" stroke-width="2" d="M407.5,-180C407.5,-180 355.5,-180 355.5,-180 349.5,-180 343.5,-174 343.5,-168 343.5,-168 343.5,-156 343.5,-156 343.5,-150 349.5,-144 355.5,-144 355.5,-144 407.5,-144 407.5,-144 413.5,-144 419.5,-150 419.5,-156 419.5,-156 419.5,-168 419.5,-168 419.5,-174 413.5,-180 407.5,-180"/>
<text text-anchor="middle" x="381.5" y="-159.5" font-family="sans" font-size="10.00">fit_titrations</text>
</g>
<!-- 4&#45;&gt;5 -->
<g id="edge15" class="edge"><title>4&#45;&gt;5</title>
<path fill="none" stroke="grey" stroke-width="2" d="M381.5,-215.697C381.5,-207.983 381.5,-198.712 381.5,-190.112"/>
<polygon fill="grey" stroke="grey" stroke-width="2" points="385,-190.104 381.5,-180.104 378,-190.104 385,-190.104"/>
</g>
<!-- 6 -->
<g id="node7" class="node"><title>6</title>
<path fill="none" stroke="#5692d8" stroke-width="2" d="M545,-180C545,-180 450,-180 450,-180 444,-180 438,-174 438,-168 438,-168 438,-156 438,-156 438,-150 444,-144 450,-144 450,-144 545,-144 545,-144 551,-144 557,-150 557,-156 557,-156 557,-168 557,-168 557,-174 551,-180 545,-180"/>
<text text-anchor="middle" x="497.5" y="-159.5" font-family="sans" font-size="10.00">calculate_expression</text>
</g>
<!-- 4&#45;&gt;6 -->
<g id="edge16" class="edge"><title>4&#45;&gt;6</title>
<path fill="none" stroke="grey" stroke-width="2" d="M409.877,-215.876C425.044,-206.724 443.905,-195.342 460.239,-185.485"/>
<polygon fill="grey" stroke="grey" stroke-width="2" points="462.261,-188.353 469.014,-180.19 458.644,-182.36 462.261,-188.353"/>
</g>
<!-- 5&#45;&gt;0 -->
<g id="edge5" class="edge"><title>5&#45;&gt;0</title>
<path fill="none" stroke="grey" stroke-width="2" d="M373.539,-143.871C362.142,-119.35 341.078,-74.0321 327.705,-45.2589"/>
<polygon fill="grey" stroke="grey" stroke-width="2" points="330.878,-43.7824 323.489,-36.1893 324.53,-46.7328 330.878,-43.7824"/>
</g>
<!-- 7 -->
<g id="node8" class="node"><title>7</title>
<path fill="none" stroke="#afd856" stroke-width="2" d="M509.5,-108C509.5,-108 393.5,-108 393.5,-108 387.5,-108 381.5,-102 381.5,-96 381.5,-96 381.5,-84 381.5,-84 381.5,-78 387.5,-72 393.5,-72 393.5,-72 509.5,-72 509.5,-72 515.5,-72 521.5,-78 521.5,-84 521.5,-84 521.5,-96 521.5,-96 521.5,-102 515.5,-108 509.5,-108"/>
<text text-anchor="middle" x="451.5" y="-87.5" font-family="sans" font-size="10.00">barcode_to_geno_phenos</text>
</g>
<!-- 5&#45;&gt;7 -->
<g id="edge17" class="edge"><title>5&#45;&gt;7</title>
<path fill="none" stroke="grey" stroke-width="2" d="M398.803,-143.697C407.365,-135.135 417.844,-124.656 427.196,-115.304"/>
<polygon fill="grey" stroke="grey" stroke-width="2" points="429.799,-117.65 434.396,-108.104 424.85,-112.701 429.799,-117.65"/>
</g>
<!-- 6&#45;&gt;0 -->
<g id="edge6" class="edge"><title>6&#45;&gt;0</title>
<path fill="none" stroke="grey" stroke-width="2" d="M513.124,-143.719C528.486,-124.563 547.37,-93.5342 530.5,-72 511.321,-47.5196 430.514,-32.8134 373.633,-25.3045"/>
<polygon fill="grey" stroke="grey" stroke-width="2" points="374.028,-21.8266 363.665,-24.0293 373.14,-28.7701 374.028,-21.8266"/>
</g>
<!-- 6&#45;&gt;7 -->
<g id="edge18" class="edge"><title>6&#45;&gt;7</title>
<path fill="none" stroke="grey" stroke-width="2" d="M486.129,-143.697C480.782,-135.559 474.296,-125.689 468.389,-116.701"/>
<polygon fill="grey" stroke="grey" stroke-width="2" points="471.157,-114.539 462.74,-108.104 465.307,-118.384 471.157,-114.539"/>
</g>
<!-- 7&#45;&gt;0 -->
<g id="edge7" class="edge"><title>7&#45;&gt;0</title>
<path fill="none" stroke="grey" stroke-width="2" d="M418.231,-71.8761C400.037,-62.5117 377.309,-50.8136 357.86,-40.803"/>
<polygon fill="grey" stroke="grey" stroke-width="2" points="359.39,-37.6543 348.897,-36.1898 356.187,-43.8782 359.39,-37.6543"/>
</g>
<!-- 8 -->
<g id="node9" class="node"><title>8</title>
<path fill="none" stroke="#d88d56" stroke-width="2" d="M131,-468C131,-468 12,-468 12,-468 6,-468 0,-462 0,-456 0,-456 0,-444 0,-444 0,-438 6,-432 12,-432 12,-432 131,-432 131,-432 137,-432 143,-438 143,-444 143,-444 143,-456 143,-456 143,-462 137,-468 131,-468"/>
<text text-anchor="middle" x="71.5" y="-453" font-family="sans" font-size="10.00">build_ccs</text>
<text text-anchor="middle" x="71.5" y="-442" font-family="sans" font-size="10.00">pacbioRun: lib1_200916_1</text>
</g>
<!-- 8&#45;&gt;2 -->
<g id="edge8" class="edge"><title>8&#45;&gt;2</title>
<path fill="none" stroke="grey" stroke-width="2" d="M130.147,-431.966C171.459,-419.966 226.078,-404.102 264.737,-392.873"/>
<polygon fill="grey" stroke="grey" stroke-width="2" points="266.07,-396.13 274.697,-389.98 264.118,-389.408 266.07,-396.13"/>
</g>
<!-- 9 -->
<g id="node10" class="node"><title>9</title>
<path fill="none" stroke="#d88d56" stroke-width="2" d="M292,-468C292,-468 173,-468 173,-468 167,-468 161,-462 161,-456 161,-456 161,-444 161,-444 161,-438 167,-432 173,-432 173,-432 292,-432 292,-432 298,-432 304,-438 304,-444 304,-444 304,-456 304,-456 304,-462 298,-468 292,-468"/>
<text text-anchor="middle" x="232.5" y="-453" font-family="sans" font-size="10.00">build_ccs</text>
<text text-anchor="middle" x="232.5" y="-442" font-family="sans" font-size="10.00">pacbioRun: lib2_200916_1</text>
</g>
<!-- 9&#45;&gt;2 -->
<g id="edge9" class="edge"><title>9&#45;&gt;2</title>
<path fill="none" stroke="grey" stroke-width="2" d="M252.275,-431.697C262.254,-422.965 274.511,-412.24 285.357,-402.75"/>
<polygon fill="grey" stroke="grey" stroke-width="2" points="287.731,-405.323 292.952,-396.104 283.122,-400.055 287.731,-405.323"/>
</g>
<!-- 10 -->
<g id="node11" class="node"><title>10</title>
<path fill="none" stroke="#d88d56" stroke-width="2" d="M453,-468C453,-468 334,-468 334,-468 328,-468 322,-462 322,-456 322,-456 322,-444 322,-444 322,-438 328,-432 334,-432 334,-432 453,-432 453,-432 459,-432 465,-438 465,-444 465,-444 465,-456 465,-456 465,-462 459,-468 453,-468"/>
<text text-anchor="middle" x="393.5" y="-453" font-family="sans" font-size="10.00">build_ccs</text>
<text text-anchor="middle" x="393.5" y="-442" font-family="sans" font-size="10.00">pacbioRun: lib1_200916_2</text>
</g>
<!-- 10&#45;&gt;2 -->
<g id="edge10" class="edge"><title>10&#45;&gt;2</title>
<path fill="none" stroke="grey" stroke-width="2" d="M373.478,-431.697C363.374,-422.965 350.964,-412.24 339.982,-402.75"/>
<polygon fill="grey" stroke="grey" stroke-width="2" points="342.147,-399.995 332.292,-396.104 337.57,-405.291 342.147,-399.995"/>
</g>
<!-- 11 -->
<g id="node12" class="node"><title>11</title>
<path fill="none" stroke="#d88d56" stroke-width="2" d="M614,-468C614,-468 495,-468 495,-468 489,-468 483,-462 483,-456 483,-456 483,-444 483,-444 483,-438 489,-432 495,-432 495,-432 614,-432 614,-432 620,-432 626,-438 626,-444 626,-444 626,-456 626,-456 626,-462 620,-468 614,-468"/>
<text text-anchor="middle" x="554.5" y="-453" font-family="sans" font-size="10.00">build_ccs</text>
<text text-anchor="middle" x="554.5" y="-442" font-family="sans" font-size="10.00">pacbioRun: lib2_200916_2</text>
</g>
<!-- 11&#45;&gt;2 -->
<g id="edge11" class="edge"><title>11&#45;&gt;2</title>
<path fill="none" stroke="grey" stroke-width="2" d="M495.61,-431.966C453.998,-419.929 398.941,-404.004 360.101,-392.769"/>
<polygon fill="grey" stroke="grey" stroke-width="2" points="360.678,-389.292 350.099,-389.876 358.732,-396.017 360.678,-389.292"/>
</g>
</g>
</svg>
