<?xml version="1.0" encoding="UTF-8" standalone="no"?>
<!DOCTYPE svg PUBLIC "-//W3C//DTD SVG 1.1//EN"
 "http://www.w3.org/Graphics/SVG/1.1/DTD/svg11.dtd">
<!-- Generated by graphviz version 2.42.3 (20191010.1750)
 -->
<!-- Title: snakemake_dag Pages: 1 -->
<svg width="1051pt" height="548pt"
 viewBox="0.00 0.00 1050.54 548.00" xmlns="http://www.w3.org/2000/svg" xmlns:xlink="http://www.w3.org/1999/xlink">
<g id="graph0" class="graph" transform="scale(1 1) rotate(0) translate(4 544)">
<title>snakemake_dag</title>
<polygon fill="white" stroke="transparent" points="-4,4 -4,-544 1046.54,-544 1046.54,4 -4,4"/>
<!-- 0 -->
<g id="node1" class="node">
<title>0</title>
<path fill="none" stroke="#5682d8" stroke-width="2" d="M569.5,-36C569.5,-36 497.5,-36 497.5,-36 491.5,-36 485.5,-30 485.5,-24 485.5,-24 485.5,-12 485.5,-12 485.5,-6 491.5,0 497.5,0 497.5,0 569.5,0 569.5,0 575.5,0 581.5,-6 581.5,-12 581.5,-12 581.5,-24 581.5,-24 581.5,-30 575.5,-36 569.5,-36"/>
<text text-anchor="middle" x="533.5" y="-15.5" font-family="sans" font-size="10.00">make_summary</text>
</g>
<!-- 1 -->
<g id="node2" class="node">
<title>1</title>
<path fill="none" stroke="#56d8d8" stroke-width="2" d="M360.5,-108C360.5,-108 316.5,-108 316.5,-108 310.5,-108 304.5,-102 304.5,-96 304.5,-96 304.5,-84 304.5,-84 304.5,-78 310.5,-72 316.5,-72 316.5,-72 360.5,-72 360.5,-72 366.5,-72 372.5,-78 372.5,-84 372.5,-84 372.5,-96 372.5,-96 372.5,-102 366.5,-108 360.5,-108"/>
<text text-anchor="middle" x="338.5" y="-87.5" font-family="sans" font-size="10.00">make_dag</text>
</g>
<!-- 1&#45;&gt;0 -->
<g id="edge1" class="edge">
<title>1&#45;&gt;0</title>
<path fill="none" stroke="grey" stroke-width="2" d="M372.91,-76.65C401.47,-66.39 442.69,-51.6 476.22,-39.56"/>
<polygon fill="grey" stroke="grey" stroke-width="2" points="477.67,-42.76 485.9,-36.09 475.31,-36.17 477.67,-42.76"/>
</g>
<!-- 2 -->
<g id="node3" class="node">
<title>2</title>
<path fill="none" stroke="#d6d856" stroke-width="2" d="M499,-468C499,-468 448,-468 448,-468 442,-468 436,-462 436,-456 436,-456 436,-444 436,-444 436,-438 442,-432 448,-432 448,-432 499,-432 499,-432 505,-432 511,-438 511,-444 511,-444 511,-456 511,-456 511,-462 505,-468 499,-468"/>
<text text-anchor="middle" x="473.5" y="-447.5" font-family="sans" font-size="10.00">process_ccs</text>
</g>
<!-- 2&#45;&gt;0 -->
<g id="edge2" class="edge">
<title>2&#45;&gt;0</title>
<path fill="none" stroke="grey" stroke-width="2" d="M450.67,-431.95C439.64,-422.53 427.16,-409.93 419.5,-396 400.02,-360.55 400.5,-347.45 400.5,-307 400.5,-307 400.5,-307 400.5,-161 400.5,-107.21 451.96,-65.4 490.86,-41.47"/>
<polygon fill="grey" stroke="grey" stroke-width="2" points="493.14,-44.19 499.94,-36.07 489.56,-38.18 493.14,-44.19"/>
</g>
<!-- 9 -->
<g id="node10" class="node">
<title>9</title>
<path fill="none" stroke="#80d856" stroke-width="2" d="M506,-396C506,-396 441,-396 441,-396 435,-396 429,-390 429,-384 429,-384 429,-372 429,-372 429,-366 435,-360 441,-360 441,-360 506,-360 506,-360 512,-360 518,-366 518,-372 518,-372 518,-384 518,-384 518,-390 512,-396 506,-396"/>
<text text-anchor="middle" x="473.5" y="-375.5" font-family="sans" font-size="10.00">count_variants</text>
</g>
<!-- 2&#45;&gt;9 -->
<g id="edge17" class="edge">
<title>2&#45;&gt;9</title>
<path fill="none" stroke="grey" stroke-width="2" d="M473.5,-431.7C473.5,-423.98 473.5,-414.71 473.5,-406.11"/>
<polygon fill="grey" stroke="grey" stroke-width="2" points="477,-406.1 473.5,-396.1 470,-406.1 477,-406.1"/>
</g>
<!-- 10 -->
<g id="node11" class="node">
<title>10</title>
<path fill="none" stroke="#56a9d8" stroke-width="2" d="M585,-324C585,-324 500,-324 500,-324 494,-324 488,-318 488,-312 488,-312 488,-300 488,-300 488,-294 494,-288 500,-288 500,-288 585,-288 585,-288 591,-288 597,-294 597,-300 597,-300 597,-312 597,-312 597,-318 591,-324 585,-324"/>
<text text-anchor="middle" x="542.5" y="-303.5" font-family="sans" font-size="10.00">merge_sequencing</text>
</g>
<!-- 2&#45;&gt;10 -->
<g id="edge18" class="edge">
<title>2&#45;&gt;10</title>
<path fill="none" stroke="grey" stroke-width="2" d="M496.09,-431.97C506.97,-422.56 519.21,-409.95 526.5,-396 536.53,-376.81 540.4,-352.46 541.83,-334.09"/>
<polygon fill="grey" stroke="grey" stroke-width="2" points="545.33,-334.23 542.42,-324.04 538.34,-333.82 545.33,-334.23"/>
</g>
<!-- 3 -->
<g id="node4" class="node">
<title>3</title>
<path fill="none" stroke="#d88556" stroke-width="2" d="M131,-540C131,-540 12,-540 12,-540 6,-540 0,-534 0,-528 0,-528 0,-516 0,-516 0,-510 6,-504 12,-504 12,-504 131,-504 131,-504 137,-504 143,-510 143,-516 143,-516 143,-528 143,-528 143,-534 137,-540 131,-540"/>
<text text-anchor="middle" x="71.5" y="-525" font-family="sans" font-size="10.00">build_ccs</text>
<text text-anchor="middle" x="71.5" y="-514" font-family="sans" font-size="10.00">pacbioRun: lib1_200916_1</text>
</g>
<!-- 3&#45;&gt;2 -->
<g id="edge11" class="edge">
<title>3&#45;&gt;2</title>
<path fill="none" stroke="grey" stroke-width="2" d="M143.43,-505.55C146.15,-505.02 148.85,-504.5 151.5,-504 248.54,-485.71 362.71,-467.76 425.69,-458.16"/>
<polygon fill="grey" stroke="grey" stroke-width="2" points="426.36,-461.6 435.73,-456.64 425.31,-454.68 426.36,-461.6"/>
</g>
<!-- 4 -->
<g id="node5" class="node">
<title>4</title>
<path fill="none" stroke="#d88556" stroke-width="2" d="M292,-540C292,-540 173,-540 173,-540 167,-540 161,-534 161,-528 161,-528 161,-516 161,-516 161,-510 167,-504 173,-504 173,-504 292,-504 292,-504 298,-504 304,-510 304,-516 304,-516 304,-528 304,-528 304,-534 298,-540 292,-540"/>
<text text-anchor="middle" x="232.5" y="-525" font-family="sans" font-size="10.00">build_ccs</text>
<text text-anchor="middle" x="232.5" y="-514" font-family="sans" font-size="10.00">pacbioRun: lib2_200916_1</text>
</g>
<!-- 4&#45;&gt;2 -->
<g id="edge12" class="edge">
<title>4&#45;&gt;2</title>
<path fill="none" stroke="grey" stroke-width="2" d="M291.15,-503.97C332.46,-491.97 387.08,-476.1 425.74,-464.87"/>
<polygon fill="grey" stroke="grey" stroke-width="2" points="427.07,-468.13 435.7,-461.98 425.12,-461.41 427.07,-468.13"/>
</g>
<!-- 5 -->
<g id="node6" class="node">
<title>5</title>
<path fill="none" stroke="#d88556" stroke-width="2" d="M453,-540C453,-540 334,-540 334,-540 328,-540 322,-534 322,-528 322,-528 322,-516 322,-516 322,-510 328,-504 334,-504 334,-504 453,-504 453,-504 459,-504 465,-510 465,-516 465,-516 465,-528 465,-528 465,-534 459,-540 453,-540"/>
<text text-anchor="middle" x="393.5" y="-525" font-family="sans" font-size="10.00">build_ccs</text>
<text text-anchor="middle" x="393.5" y="-514" font-family="sans" font-size="10.00">pacbioRun: lib1_200916_2</text>
</g>
<!-- 5&#45;&gt;2 -->
<g id="edge13" class="edge">
<title>5&#45;&gt;2</title>
<path fill="none" stroke="grey" stroke-width="2" d="M413.28,-503.7C423.25,-494.97 435.51,-484.24 446.36,-474.75"/>
<polygon fill="grey" stroke="grey" stroke-width="2" points="448.73,-477.32 453.95,-468.1 444.12,-472.06 448.73,-477.32"/>
</g>
<!-- 6 -->
<g id="node7" class="node">
<title>6</title>
<path fill="none" stroke="#d88556" stroke-width="2" d="M614,-540C614,-540 495,-540 495,-540 489,-540 483,-534 483,-528 483,-528 483,-516 483,-516 483,-510 489,-504 495,-504 495,-504 614,-504 614,-504 620,-504 626,-510 626,-516 626,-516 626,-528 626,-528 626,-534 620,-540 614,-540"/>
<text text-anchor="middle" x="554.5" y="-525" font-family="sans" font-size="10.00">build_ccs</text>
<text text-anchor="middle" x="554.5" y="-514" font-family="sans" font-size="10.00">pacbioRun: lib2_200916_2</text>
</g>
<!-- 6&#45;&gt;2 -->
<g id="edge14" class="edge">
<title>6&#45;&gt;2</title>
<path fill="none" stroke="grey" stroke-width="2" d="M534.48,-503.7C524.37,-494.97 511.96,-484.24 500.98,-474.75"/>
<polygon fill="grey" stroke="grey" stroke-width="2" points="503.15,-471.99 493.29,-468.1 498.57,-477.29 503.15,-471.99"/>
</g>
<!-- 7 -->
<g id="node8" class="node">
<title>7</title>
<path fill="none" stroke="#d88556" stroke-width="2" d="M764.5,-540C764.5,-540 656.5,-540 656.5,-540 650.5,-540 644.5,-534 644.5,-528 644.5,-528 644.5,-516 644.5,-516 644.5,-510 650.5,-504 656.5,-504 656.5,-504 764.5,-504 764.5,-504 770.5,-504 776.5,-510 776.5,-516 776.5,-516 776.5,-528 776.5,-528 776.5,-534 770.5,-540 764.5,-540"/>
<text text-anchor="middle" x="710.5" y="-525" font-family="sans" font-size="10.00">build_ccs</text>
<text text-anchor="middle" x="710.5" y="-514" font-family="sans" font-size="10.00">pacbioRun: lib1_201110</text>
</g>
<!-- 7&#45;&gt;2 -->
<g id="edge15" class="edge">
<title>7&#45;&gt;2</title>
<path fill="none" stroke="grey" stroke-width="2" d="M652.83,-503.97C612.33,-492 558.82,-476.2 520.82,-464.98"/>
<polygon fill="grey" stroke="grey" stroke-width="2" points="521.61,-461.56 511.03,-462.08 519.63,-468.27 521.61,-461.56"/>
</g>
<!-- 8 -->
<g id="node9" class="node">
<title>8</title>
<path fill="none" stroke="#d88556" stroke-width="2" d="M914.5,-540C914.5,-540 806.5,-540 806.5,-540 800.5,-540 794.5,-534 794.5,-528 794.5,-528 794.5,-516 794.5,-516 794.5,-510 800.5,-504 806.5,-504 806.5,-504 914.5,-504 914.5,-504 920.5,-504 926.5,-510 926.5,-516 926.5,-516 926.5,-528 926.5,-528 926.5,-534 920.5,-540 914.5,-540"/>
<text text-anchor="middle" x="860.5" y="-525" font-family="sans" font-size="10.00">build_ccs</text>
<text text-anchor="middle" x="860.5" y="-514" font-family="sans" font-size="10.00">pacbioRun: lib2_201110</text>
</g>
<!-- 8&#45;&gt;2 -->
<g id="edge16" class="edge">
<title>8&#45;&gt;2</title>
<path fill="none" stroke="grey" stroke-width="2" d="M794.29,-505.79C791.32,-505.17 788.38,-504.57 785.5,-504 692.27,-485.53 582.57,-467.82 521.23,-458.28"/>
<polygon fill="grey" stroke="grey" stroke-width="2" points="521.5,-454.78 511.08,-456.7 520.43,-461.69 521.5,-454.78"/>
</g>
<!-- 9&#45;&gt;0 -->
<g id="edge3" class="edge">
<title>9&#45;&gt;0</title>
<path fill="none" stroke="grey" stroke-width="2" d="M466.42,-359.85C456.19,-333.49 438.5,-281.21 438.5,-235 438.5,-235 438.5,-235 438.5,-161 438.5,-113.01 476.44,-68.96 504.37,-43.04"/>
<polygon fill="grey" stroke="grey" stroke-width="2" points="506.85,-45.52 511.94,-36.22 502.17,-40.31 506.85,-45.52"/>
</g>
<!-- 9&#45;&gt;10 -->
<g id="edge19" class="edge">
<title>9&#45;&gt;10</title>
<path fill="none" stroke="grey" stroke-width="2" d="M490.56,-359.7C499,-351.14 509.32,-340.66 518.54,-331.3"/>
<polygon fill="grey" stroke="grey" stroke-width="2" points="521.11,-333.68 525.64,-324.1 516.13,-328.77 521.11,-333.68"/>
</g>
<!-- 10&#45;&gt;0 -->
<g id="edge4" class="edge">
<title>10&#45;&gt;0</title>
<path fill="none" stroke="grey" stroke-width="2" d="M521.23,-287.7C511.39,-278.31 500.74,-265.8 495.5,-252 468.39,-180.57 500.91,-89.63 520.59,-45.46"/>
<polygon fill="grey" stroke="grey" stroke-width="2" points="523.82,-46.82 524.8,-36.27 517.45,-43.9 523.82,-46.82"/>
</g>
<!-- 11 -->
<g id="node12" class="node">
<title>11</title>
<path fill="none" stroke="#59d856" stroke-width="2" d="M568.5,-252C568.5,-252 516.5,-252 516.5,-252 510.5,-252 504.5,-246 504.5,-240 504.5,-240 504.5,-228 504.5,-228 504.5,-222 510.5,-216 516.5,-216 516.5,-216 568.5,-216 568.5,-216 574.5,-216 580.5,-222 580.5,-228 580.5,-228 580.5,-240 580.5,-240 580.5,-246 574.5,-252 568.5,-252"/>
<text text-anchor="middle" x="542.5" y="-231.5" font-family="sans" font-size="10.00">fit_titrations</text>
</g>
<!-- 10&#45;&gt;11 -->
<g id="edge20" class="edge">
<title>10&#45;&gt;11</title>
<path fill="none" stroke="grey" stroke-width="2" d="M542.5,-287.7C542.5,-279.98 542.5,-270.71 542.5,-262.11"/>
<polygon fill="grey" stroke="grey" stroke-width="2" points="546,-262.1 542.5,-252.1 539,-262.1 546,-262.1"/>
</g>
<!-- 12 -->
<g id="node13" class="node">
<title>12</title>
<path fill="none" stroke="#56d882" stroke-width="2" d="M706,-252C706,-252 611,-252 611,-252 605,-252 599,-246 599,-240 599,-240 599,-228 599,-228 599,-222 605,-216 611,-216 611,-216 706,-216 706,-216 712,-216 718,-222 718,-228 718,-228 718,-240 718,-240 718,-246 712,-252 706,-252"/>
<text text-anchor="middle" x="658.5" y="-231.5" font-family="sans" font-size="10.00">calculate_expression</text>
</g>
<!-- 10&#45;&gt;12 -->
<g id="edge21" class="edge">
<title>10&#45;&gt;12</title>
<path fill="none" stroke="grey" stroke-width="2" d="M570.88,-287.88C586.04,-278.72 604.91,-267.34 621.24,-257.48"/>
<polygon fill="grey" stroke="grey" stroke-width="2" points="623.26,-260.35 630.01,-252.19 619.64,-254.36 623.26,-260.35"/>
</g>
<!-- 11&#45;&gt;0 -->
<g id="edge5" class="edge">
<title>11&#45;&gt;0</title>
<path fill="none" stroke="grey" stroke-width="2" d="M541.78,-215.85C540.22,-178.83 536.54,-91.18 534.65,-46.39"/>
<polygon fill="grey" stroke="grey" stroke-width="2" points="538.14,-46.08 534.22,-36.23 531.15,-46.37 538.14,-46.08"/>
</g>
<!-- 13 -->
<g id="node14" class="node">
<title>13</title>
<path fill="none" stroke="#56d8a9" stroke-width="2" d="M706.5,-180C706.5,-180 590.5,-180 590.5,-180 584.5,-180 578.5,-174 578.5,-168 578.5,-168 578.5,-156 578.5,-156 578.5,-150 584.5,-144 590.5,-144 590.5,-144 706.5,-144 706.5,-144 712.5,-144 718.5,-150 718.5,-156 718.5,-156 718.5,-168 718.5,-168 718.5,-174 712.5,-180 706.5,-180"/>
<text text-anchor="middle" x="648.5" y="-159.5" font-family="sans" font-size="10.00">barcode_to_geno_phenos</text>
</g>
<!-- 11&#45;&gt;13 -->
<g id="edge22" class="edge">
<title>11&#45;&gt;13</title>
<path fill="none" stroke="grey" stroke-width="2" d="M568.43,-215.88C582.16,-206.81 599.21,-195.55 614.04,-185.76"/>
<polygon fill="grey" stroke="grey" stroke-width="2" points="616.05,-188.62 622.47,-180.19 612.2,-182.78 616.05,-188.62"/>
</g>
<!-- 12&#45;&gt;0 -->
<g id="edge6" class="edge">
<title>12&#45;&gt;0</title>
<path fill="none" stroke="grey" stroke-width="2" d="M718.42,-227.86C843.94,-214.96 1115.57,-174.56 1023.5,-72 995.11,-40.38 715.69,-25.92 591.95,-21.03"/>
<polygon fill="grey" stroke="grey" stroke-width="2" points="592.02,-17.53 581.9,-20.64 591.75,-24.52 592.02,-17.53"/>
</g>
<!-- 12&#45;&gt;13 -->
<g id="edge23" class="edge">
<title>12&#45;&gt;13</title>
<path fill="none" stroke="grey" stroke-width="2" d="M656.03,-215.7C654.93,-207.98 653.6,-198.71 652.37,-190.11"/>
<polygon fill="grey" stroke="grey" stroke-width="2" points="655.82,-189.51 650.94,-180.1 648.89,-190.5 655.82,-189.51"/>
</g>
<!-- 13&#45;&gt;0 -->
<g id="edge7" class="edge">
<title>13&#45;&gt;0</title>
<path fill="none" stroke="grey" stroke-width="2" d="M615.3,-143.86C600.35,-134.82 583.42,-122.57 571.5,-108 556.6,-89.79 546.63,-64.86 540.65,-46.02"/>
<polygon fill="grey" stroke="grey" stroke-width="2" points="543.95,-44.84 537.74,-36.26 537.25,-46.85 543.95,-44.84"/>
</g>
<!-- 14 -->
<g id="node15" class="node">
<title>14</title>
<path fill="none" stroke="#afd856" stroke-width="2" d="M686.5,-108C686.5,-108 592.5,-108 592.5,-108 586.5,-108 580.5,-102 580.5,-96 580.5,-96 580.5,-84 580.5,-84 580.5,-78 586.5,-72 592.5,-72 592.5,-72 686.5,-72 686.5,-72 692.5,-72 698.5,-78 698.5,-84 698.5,-84 698.5,-96 698.5,-96 698.5,-102 692.5,-108 686.5,-108"/>
<text text-anchor="middle" x="639.5" y="-87.5" font-family="sans" font-size="10.00">analyze_evolvability</text>
</g>
<!-- 13&#45;&gt;14 -->
<g id="edge24" class="edge">
<title>13&#45;&gt;14</title>
<path fill="none" stroke="grey" stroke-width="2" d="M646.28,-143.7C645.28,-135.98 644.09,-126.71 642.99,-118.11"/>
<polygon fill="grey" stroke="grey" stroke-width="2" points="646.45,-117.58 641.7,-108.1 639.5,-118.47 646.45,-117.58"/>
</g>
<!-- 15 -->
<g id="node16" class="node">
<title>15</title>
<path fill="none" stroke="#d8ac56" stroke-width="2" d="M822.5,-108C822.5,-108 728.5,-108 728.5,-108 722.5,-108 716.5,-102 716.5,-96 716.5,-96 716.5,-84 716.5,-84 716.5,-78 722.5,-72 728.5,-72 728.5,-72 822.5,-72 822.5,-72 828.5,-72 834.5,-78 834.5,-84 834.5,-84 834.5,-96 834.5,-96 834.5,-102 828.5,-108 822.5,-108"/>
<text text-anchor="middle" x="775.5" y="-87.5" font-family="sans" font-size="10.00">analyze_preferences</text>
</g>
<!-- 13&#45;&gt;15 -->
<g id="edge25" class="edge">
<title>13&#45;&gt;15</title>
<path fill="none" stroke="grey" stroke-width="2" d="M679.57,-143.88C696.33,-134.64 717.21,-123.13 735.2,-113.21"/>
<polygon fill="grey" stroke="grey" stroke-width="2" points="737.24,-116.08 744.31,-108.19 733.87,-109.95 737.24,-116.08"/>
</g>
<!-- 16 -->
<g id="node17" class="node">
<title>16</title>
<path fill="none" stroke="#d85656" stroke-width="2" d="M1002.5,-108C1002.5,-108 864.5,-108 864.5,-108 858.5,-108 852.5,-102 852.5,-96 852.5,-96 852.5,-84 852.5,-84 852.5,-78 858.5,-72 864.5,-72 864.5,-72 1002.5,-72 1002.5,-72 1008.5,-72 1014.5,-78 1014.5,-84 1014.5,-84 1014.5,-96 1014.5,-96 1014.5,-102 1008.5,-108 1002.5,-108"/>
<text text-anchor="middle" x="933.5" y="-87.5" font-family="sans" font-size="10.00">supplemental_binding_curves</text>
</g>
<!-- 13&#45;&gt;16 -->
<g id="edge26" class="edge">
<title>13&#45;&gt;16</title>
<path fill="none" stroke="grey" stroke-width="2" d="M717.85,-143.97C758.97,-133.87 811.24,-121.03 854.02,-110.52"/>
<polygon fill="grey" stroke="grey" stroke-width="2" points="854.96,-113.9 863.83,-108.11 853.29,-107.1 854.96,-113.9"/>
</g>
<!-- 14&#45;&gt;0 -->
<g id="edge8" class="edge">
<title>14&#45;&gt;0</title>
<path fill="none" stroke="grey" stroke-width="2" d="M613.57,-71.88C599.84,-62.81 582.79,-51.55 567.96,-41.76"/>
<polygon fill="grey" stroke="grey" stroke-width="2" points="569.8,-38.78 559.53,-36.19 565.95,-44.62 569.8,-38.78"/>
</g>
<!-- 15&#45;&gt;0 -->
<g id="edge9" class="edge">
<title>15&#45;&gt;0</title>
<path fill="none" stroke="grey" stroke-width="2" d="M716.61,-71.97C678.59,-60.97 629.36,-46.73 591.52,-35.78"/>
<polygon fill="grey" stroke="grey" stroke-width="2" points="592.24,-32.35 581.66,-32.93 590.29,-39.07 592.24,-32.35"/>
</g>
<!-- 16&#45;&gt;0 -->
<g id="edge10" class="edge">
<title>16&#45;&gt;0</title>
<path fill="none" stroke="grey" stroke-width="2" d="M852.08,-73.55C849.18,-73.03 846.32,-72.51 843.5,-72 755.82,-56.22 653.97,-39.03 591.64,-28.63"/>
<polygon fill="grey" stroke="grey" stroke-width="2" points="592.05,-25.15 581.61,-26.96 590.89,-32.05 592.05,-25.15"/>
</g>
</g>
</svg>
