<?xml version="1.0" encoding="UTF-8" standalone="no"?>
<!DOCTYPE svg PUBLIC "-//W3C//DTD SVG 1.1//EN"
 "http://www.w3.org/Graphics/SVG/1.1/DTD/svg11.dtd">
<!-- Generated by graphviz version 2.38.0 (20140413.2041)
 -->
<!-- Title: snakemake_dag Pages: 1 -->
<svg width="312pt" height="260pt"
 viewBox="0.00 0.00 312.00 260.00" xmlns="http://www.w3.org/2000/svg" xmlns:xlink="http://www.w3.org/1999/xlink">
<g id="graph0" class="graph" transform="scale(1 1) rotate(0) translate(4 256)">
<title>snakemake_dag</title>
<polygon fill="white" stroke="none" points="-4,4 -4,-256 308,-256 308,4 -4,4"/>
<!-- 0 -->
<g id="node1" class="node"><title>0</title>
<path fill="none" stroke="#88d856" stroke-width="2" d="M151.5,-36C151.5,-36 79.5,-36 79.5,-36 73.5,-36 67.5,-30 67.5,-24 67.5,-24 67.5,-12 67.5,-12 67.5,-6 73.5,-0 79.5,-0 79.5,-0 151.5,-0 151.5,-0 157.5,-0 163.5,-6 163.5,-12 163.5,-12 163.5,-24 163.5,-24 163.5,-30 157.5,-36 151.5,-36"/>
<text text-anchor="middle" x="115.5" y="-15.5" font-family="sans" font-size="10.00">make_summary</text>
</g>
<!-- 1 -->
<g id="node2" class="node"><title>1</title>
<path fill="none" stroke="#d85656" stroke-width="2" d="M75.5,-108C75.5,-108 31.5,-108 31.5,-108 25.5,-108 19.5,-102 19.5,-96 19.5,-96 19.5,-84 19.5,-84 19.5,-78 25.5,-72 31.5,-72 31.5,-72 75.5,-72 75.5,-72 81.5,-72 87.5,-78 87.5,-84 87.5,-84 87.5,-96 87.5,-96 87.5,-102 81.5,-108 75.5,-108"/>
<text text-anchor="middle" x="53.5" y="-87.5" font-family="sans" font-size="10.00">make_dag</text>
</g>
<!-- 1&#45;&gt;0 -->
<g id="edge1" class="edge"><title>1&#45;&gt;0</title>
<path fill="none" stroke="grey" stroke-width="2" d="M68.8258,-71.6966C76.2588,-63.3046 85.3233,-53.0705 93.48,-43.8613"/>
<polygon fill="grey" stroke="grey" stroke-width="2" points="96.3401,-45.9109 100.35,-36.1043 91.1,-41.2696 96.3401,-45.9109"/>
</g>
<!-- 2 -->
<g id="node3" class="node"><title>2</title>
<path fill="none" stroke="#56c1d8" stroke-width="2" d="M177,-180C177,-180 126,-180 126,-180 120,-180 114,-174 114,-168 114,-168 114,-156 114,-156 114,-150 120,-144 126,-144 126,-144 177,-144 177,-144 183,-144 189,-150 189,-156 189,-156 189,-168 189,-168 189,-174 183,-180 177,-180"/>
<text text-anchor="middle" x="151.5" y="-159.5" font-family="sans" font-size="10.00">process_ccs</text>
</g>
<!-- 2&#45;&gt;0 -->
<g id="edge2" class="edge"><title>2&#45;&gt;0</title>
<path fill="none" stroke="grey" stroke-width="2" d="M145.997,-143.903C142.754,-133.563 138.677,-120.084 135.5,-108 130.097,-87.4525 124.865,-63.999 121.107,-46.3282"/>
<polygon fill="grey" stroke="grey" stroke-width="2" points="124.451,-45.2179 118.97,-36.1505 117.6,-46.6564 124.451,-45.2179"/>
</g>
<!-- 3 -->
<g id="node4" class="node"><title>3</title>
<path fill="none" stroke="#d8bc56" stroke-width="2" d="M221,-108C221,-108 156,-108 156,-108 150,-108 144,-102 144,-96 144,-96 144,-84 144,-84 144,-78 150,-72 156,-72 156,-72 221,-72 221,-72 227,-72 233,-78 233,-84 233,-84 233,-96 233,-96 233,-102 227,-108 221,-108"/>
<text text-anchor="middle" x="188.5" y="-87.5" font-family="sans" font-size="10.00">count_variants</text>
</g>
<!-- 2&#45;&gt;3 -->
<g id="edge6" class="edge"><title>2&#45;&gt;3</title>
<path fill="none" stroke="grey" stroke-width="2" d="M160.646,-143.697C164.903,-135.644 170.056,-125.894 174.766,-116.982"/>
<polygon fill="grey" stroke="grey" stroke-width="2" points="177.88,-118.581 179.459,-108.104 171.692,-115.31 177.88,-118.581"/>
</g>
<!-- 3&#45;&gt;0 -->
<g id="edge3" class="edge"><title>3&#45;&gt;0</title>
<path fill="none" stroke="grey" stroke-width="2" d="M170.455,-71.6966C161.438,-63.0503 150.382,-52.4486 140.557,-43.027"/>
<polygon fill="grey" stroke="grey" stroke-width="2" points="142.978,-40.4993 133.337,-36.1043 138.133,-45.5518 142.978,-40.4993"/>
</g>
<!-- 4 -->
<g id="node5" class="node"><title>4</title>
<path fill="none" stroke="#56d88a" stroke-width="2" d="M131,-252C131,-252 12,-252 12,-252 6,-252 0,-246 0,-240 0,-240 0,-228 0,-228 0,-222 6,-216 12,-216 12,-216 131,-216 131,-216 137,-216 143,-222 143,-228 143,-228 143,-240 143,-240 143,-246 137,-252 131,-252"/>
<text text-anchor="middle" x="71.5" y="-237" font-family="sans" font-size="10.00">build_ccs</text>
<text text-anchor="middle" x="71.5" y="-226" font-family="sans" font-size="10.00">pacbioRun: lib1_200916_1</text>
</g>
<!-- 4&#45;&gt;2 -->
<g id="edge4" class="edge"><title>4&#45;&gt;2</title>
<path fill="none" stroke="grey" stroke-width="2" d="M91.2753,-215.697C101.254,-206.965 113.511,-196.24 124.357,-186.75"/>
<polygon fill="grey" stroke="grey" stroke-width="2" points="126.731,-189.323 131.952,-180.104 122.122,-184.055 126.731,-189.323"/>
</g>
<!-- 5 -->
<g id="node6" class="node"><title>5</title>
<path fill="none" stroke="#56d88a" stroke-width="2" d="M292,-252C292,-252 173,-252 173,-252 167,-252 161,-246 161,-240 161,-240 161,-228 161,-228 161,-222 167,-216 173,-216 173,-216 292,-216 292,-216 298,-216 304,-222 304,-228 304,-228 304,-240 304,-240 304,-246 298,-252 292,-252"/>
<text text-anchor="middle" x="232.5" y="-237" font-family="sans" font-size="10.00">build_ccs</text>
<text text-anchor="middle" x="232.5" y="-226" font-family="sans" font-size="10.00">pacbioRun: lib2_200916_1</text>
</g>
<!-- 5&#45;&gt;2 -->
<g id="edge5" class="edge"><title>5&#45;&gt;2</title>
<path fill="none" stroke="grey" stroke-width="2" d="M212.478,-215.697C202.374,-206.965 189.964,-196.24 178.982,-186.75"/>
<polygon fill="grey" stroke="grey" stroke-width="2" points="181.147,-183.995 171.292,-180.104 176.57,-189.291 181.147,-183.995"/>
</g>
</g>
</svg>
